<?xml version="1.0" encoding="UTF-8"?>
<svg id="Layer_2" data-name="Layer 2" xmlns="http://www.w3.org/2000/svg" viewBox="0 0 71.99 66.66">
  <defs>
    <style>
      .cls-1 {
        fill: #2c4f1d;
      }

      .cls-2 {
        fill: #7b957a;
      }
    </style>
  </defs>
  <g id="Layer_1-2" data-name="Layer 1">
    <g>
      <path class="cls-2" d="M32.19,58.28s-.03-.02-.04-.04"/>
      <g>
        <path class="cls-2" d="M17.74,27.61s-.02-.01-.03-.02c-.11,0-.22-.02-.32-.07,0,0,0,0,0,0,0,0-.01,0-.02,.01-1.16-.63-2.48-.84-3.65-1.45-1.6-.82-2.76-2.31-2.9-4.15,.67,.67,1.82,.84,2.53,1.32,.2,.13,.65,.7,.8,.68,.41-.22,.24-.76,.13-1.12-.3-1-1.39-2.72-2.4-3.1-.79-.3-1.96,.04-2.33-.17-.12-.07-1.55-1.24-1.65-1.35-.38-.42-1.2-1.88-1.47-2.43-.11-.22-.74-1.75-.72-1.85,.65-.62,1.47-.93,1.39-2.02-.02-.2-.32-1.24-.61-.95,.24,1.09-.75,.8-1.2,1.5-.17-.8-.12-1.49,.07-2.28,.13-.53,.45-1.03,.58-1.52,.46-1.75,.57-4.19-.31-5.81-.08-.14,0-.25-.25-.19-.03,.55,.36,1.08,.47,1.58,.32,1.38-.09,2.99-.47,4.32-.34-.25-.15-.86-.21-1.24-.09-.58-.58-1.95-1.24-2.06-.33-.06,.03,.71,.04,.86,.08,.9-.69,1.49-.69,2.29,0,.83,.83,1.74,1.7,1.55-.39,1.63-.27,3.33,.3,4.9-.34-.2-.74-.58-1.16-.59-.36-.01-.76,.31-1.19,.3-.41,0-.59-.25-.95-.31,.24,1.74,2.69,3.32,4.2,2l.8,1.5c-.87-.28-2-.22-2.83-.42-.28-.07-.52-.32-.83-.37-.77-.12-1.56,.27-1.84,.99,.74-.19,1.03,.05,1.61,.46-.19,.55-.57,1.03-.7,1.6-.29,1.34,.78,2.5,2.13,1.83,.12-.06,.53-.43,.21-.49-.14-.03-1.51,.97-1.89-.11-.59-1.67,1.49-3.24,2.98-3.18,3.05,.12,3.58,3.94,4.84,5.96,.36,.58,.91,1.13,1.37,1.63,.12,.24-.44,.75-.51,1.09-.29,1.29,1.05,1.8,1.58,2.64,.36,.57,.49,1.32,.63,1.97,.17,.2,.22,.08,.34-.07,.55-.74,.96-2.24,.54-3.11-.2-.4-.79-.63-.82-1.13,.6,.29,1.21,.6,1.85,.8,.3,.1,1.59,.34,1.78,.47,.01,0,.03,0,.04,0,.03,.02,.06,.03,.09,.05,0,0,0,0,.01,0,0,0,0,0,0,0,0,0,0,0,0,0,0,0,0,0,.01,0,.02,0,.03,.01,.05,.02,.03,0,.05,.01,.08,.02,.09-.13,.15-.29,.16-.45,0-.11,0-.21-.02-.32-.05,0-.1-.02-.14-.03Z"/>
        <path class="cls-2" d="M62.55,41.24c-.29,.23,.09,.61,.14,.96,.11,.79-.18,1.58-.74,2.14-.24-.23-.13-.57-.22-.88-.14-.49-.6-1.62-.83-2.07-.07-.14-.09-.28-.31-.24-.07,.08,.28,1.58,.3,1.85,.11,1.49-.28,3.02-.4,4.5-.03,.45,.02,.9,0,1.35l-.82-1.33c-.21-.3-1.16-1.48-1.41-1.59-.12-.05-.23-.09-.27,.07,.06,.26,.34,.39,.48,.61,.61,.96,.16,1.73,.21,2.69,.03,.61,.62,1.63,1.05,2.05,.37,.36,1.06,.54,1.3,.8,.26,.28,.29,.87,.51,1.19,.04,.03,.07,.07,.1,.11,.04,.06,.08,.13,.12,.2,.02,.03,0,.07-.02,.09,.02,.03,.03,.07,.03,.1,.08-.02,.15-.05,.23-.09,.19-.1,.39-.29,.48-.49,.06-.12,.07-.24,.05-.37,0,.02-.02,.04-.03,.06-.04,.06-.09,.11-.16,.11,0,.01-.02,.03-.04,.03-.01,0-.02,0-.04,0-.01,.03-.05,.05-.08,.04-.09-.03-.13-.12-.15-.2,0,0,0-.02,0-.03,0,0,0,0,0-.01,0-.02-.02-.05-.02-.07,0,0,0,0,0,0,0-.02-.01-.04-.02-.07,0,0,0,0,0,0,0,0,0,0,0,0,0-.01,0-.02,0-.03-.14-.54-.32-1.08-.37-1.65-.07-.77-.15-2.05-.11-2.8,.01-.21,.05-.7,.11-.87,.04-.12,1.4-1.01,1.64-1.28,1.26-1.44,.48-3.67-.69-4.89Z"/>
        <path class="cls-2" d="M46.61,9.24s0,0,0,0c-.04,0-.06-.05-.05-.09,.04-.13,.1-.25,.15-.37,0-.02,0-.04,0-.06,.52-1.86,.37-4.53-.62-6.23-.26-.45-1.66-1.87-2.11-2.08-2.12-.99-6.95-.21-5.81,3.01,.15,.41,1.05,.78,1.04,.45,0-.05-.53-.39-.65-.85-.1-.41,.03-1.29,.31-1.6,.13-.15,1.03-.67,1.25-.75,.55-.2,1.86-.4,2.45-.35,1.9,.14,3.78,2.65,3.85,4.5l-.8-1.35c-.58-.72-1.23-.99-2.15-1.05-.2-.01-1.33-.11-1.25,.25,.19,.22,.47,.22,.7,.4,1.06,.82,.45,2.49,1.29,3.41,.53,.58,1.26,.66,1.99,.76l-.25,1.49h-.01s0,.07-.02,.1c-.02,.06-.05,.11-.08,.16-.03,.05-.06,.11-.1,.16,.03,.03,.06,.07,.09,.1,.22,.2,.5,.22,.78,.16,0,0-.01,0-.02-.01-.03-.03-.02-.07,0-.1,.01-.01,.02-.03,.03-.05Z"/>
        <path class="cls-2" d="M39.96,24.33c.48-.51,.77-1.31,1.6-1.4,1.21-.14,2.27,.12,3.5-.39,1.03-.43,2.97-2.46,3.14-3.56,.06-.35,.02-2.56-.24-2.65l-.25,.06c.12,2.13-1.62,1.89-2.92,2.47-.63,.28-1.29,.98-1.87,1.37l.92-1.53c.86-1.82,1.86-3.62,2.39-5.56,.13,0,.26,0,.4,0-.05-.08-.11-.15-.18-.23-.28-.31-.68-.56-1.11-.54-.45,.03-.74,.39-.91,.78,.23,0,.47-.01,.7-.02-.27,3.04-2.22,5.55-3.84,8.01-.8,1.21-1.2,2.23-2.36,3.24-.14,.12-.85,.7-.95,.75-.04,.02-.16,.03-.15-.05,1.66-2.51,1.94-5.77-1.15-7.26-.11-.05-.21-.14-.25,.05-.04,.2,.44,.39,.5,.7,.16,.83-.3,1.84-.85,2.45-.69,.77-1.3,.81-1.77,1.93-.58,1.38-.42,2.31,.56,3.37,.36,.39,.74,.26,.11,.9-.74,.75-3.29,2.51-4.25,2.95-.28,.13-.59,.23-.9,.24-.04-.21-.02-.41,0-.62-.22,.12-.5,.18-.63,.4-.12,.2-.11,.47-.1,.7,0,.21,.03,.46,.12,.65,.09,.19,.31,.26,.51,.31,.05,.01,.09,.02,.14,.03,0-.06,0-.11,0-.18,1.37-.54,2.66-.86,3.61-2.1,.17,.55,1.49,1.47,2.02,1.58,.3,.06,.73,.06,1.03-.02,.48-.12,.74-.73,1.34-.74,.53,0,1.05,.48,1.55,.58,.13-.86-.57-1.69-1.29-2.06-.12-.06-1.09-.44-1.16-.44h-1.65c.7-.72,1.65-1.19,2.4-1.85,.7-.62,1.58-1.64,2.25-2.35Z"/>
        <path class="cls-2" d="M70.77,57.42c-.79-.17-1.2-.93-2.07-.88,1.38-1.33,.53-4.39-1.6-3.24-.03,.57,.36,1.35,.99,.89-.2-.26-.65-.11-.65-.5,0-.33,.32-.31,.59-.25,.08,.02,.08,.16,.14,.19,.7,.36,.93,.41,.8,1.33-.12,.84-.5,1.32-1.35,1.45-.56,.08-1.52-.11-2.08-.27-.42-.12-.83-.45-1.23-.62l.1-.34c-.21-.04-.42-.04-.63,.01-.38,.09-.71,.4-.68,.82,.03,.44,.43,.69,.82,.8,.05-.15,.1-.3,.14-.45,.03-.1,.02-.22,.03-.32,.9,.6,2.31,1.52,2.49,2.66,.24,1.5-.31,2.81-.89,4.14-.88-.4-1.44,.44-2.2,.75-.6,.24-1.13,.18-1.65,.45,.15,.73,1.24,.98,1.86,.8-.83,1.18-2.41,1.05-3.6,1.65,.11,.17,.27,.14,.44,.16,2.05,.14,3.78-1.25,4.95-2.76,.36-.47,.74-.96,.9-1.55,.18,.07,.21,.58,.21,.75-.01,.35-.21,.53-.21,.85,.75,.08,1.44-1.19,1.39-1.84-.04-.57-.65-1.06-.75-1.46-.06-.24,.14-.67,.15-.96,.05-.94-.05-1.73-.7-2.45,.72-.31,.9,.43,1.36,.69,.66,.37,2.28,.12,3.04-.03,.21-.04,1.14-.21,1.09-.5l-1.22,.03Z"/>
        <path class="cls-2" d="M44.8,52.54c.03-.26-.16-.28-.34-.3-1.01-.12-2.14,.18-3.15,.2-.06-.05,.56-1.27,.65-1.39,.26-.34,1.19-.7,.17-.88-1.88-.34-3.55,1.38-3.83,3.12l-3.19,2.42c-.17,.04-.61-.58-.81-.7-.86-.51-2.36-.21-2.59,.84l.98-.18c.09,.21,.16,.47,.31,.64,.18,.19,.68,.23,.6,.4-.1,.21-1.8,.9-2.03,.84,0,0,0,0-.01-.01-.19,.05-.39,.06-.58,.06-.05,0-.07-.04-.07-.08-.09,.01-.17,.02-.26,.03,0,.01-.02,.03-.04,.03-.06,.01-.13,.01-.19,0,0,0-.02,0-.03-.01-.13,.22-.19,.48-.12,.73,.11,.41,.48,.64,.87,.73,.3,.07,.61,.11,.92,.14,.35,.03,.72,.05,1.07-.02,.04,0,.08-.02,.12-.03-.03-.02-.06-.05-.07-.09,0-.02,0-.03,0-.05-.19-.07-.38-.12-.58-.16-.05-.01-.06-.06-.04-.1-.14-.01-.28-.01-.42-.02-.06,0-.08-.06-.06-.1,0-.02,0-.04,0-.06-.01,0-.02,0-.03,0-.03,0-.06-.03-.07-.06,0,0,0,0,0,0-.04,0-.06-.05-.05-.09,.01-.04,.05-.05,.09-.05,.03,0,.06,0,.09,0,.1-.02,.21-.03,.31-.03,0,0,0,0,0,0,1.36-.27,2.39-1.11,3.45-1.95,.64,1.67,2.25,1.69,3.49,.6,.71-.63,.95-1.5,2.15-1.4,.3-.28-1.42-.85-1.57-.88-.73-.11-1.33,.07-2.02,.13,1.86-2,4.4-1.89,6.9-2.25Z"/>
        <path class="cls-2" d="M18.12,57.08s.04,.07,.02,.1c.04,.02,.08,.04,.12,.06,.04-.07,.06-.15,.08-.22,.05-.25,.05-.49-.02-.73-.02-.06-.04-.11-.06-.17-.09-.02-.17-.05-.26-.08-.09-.03-.18-.06-.26-.09-.09-.03-.18-.07-.28-.08-.02,0-.04-.01-.05-.03-.32-.13-.68-.16-.97-.36-.79-.56-2.03-3.99-2.11-5-.08-.98,.1-.51,.72-.85,.75-.41,.43-.93,.61-1.49,.11-.35,.61-.51,.65-.89-1.06-.12-1.65,.3-2.15,1.2-.09-.08-.06-.33-.05-.45,.09-2.62,1.18-6.53,3.05-8.45,.06-.06,.1-.12,.16-.16,0-.03,.03-.05,.07-.05,.01,0,.02,0,.03,0,0,0,0,0,0,0,.23-.14,.5-.21,.77-.23,.02-.16,.02-.31,.02-.47,0-.26-.02-.51-.08-.76-.05-.22-.14-.45-.31-.61-.02-.02-.04-.03-.06-.05-.07,.04-.14,.07-.2,.12,0,0,0,0,0,0,0,0,0,0-.01,.01,0,0,0,0,0,0-.01,.02-.03,.04-.04,.06,0,0,0,0-.01,.01-.28,.43-.64,.8-.92,1.23-.48,.75-1.13,2.2-1.61,2.79-.04,.05-.12,.14-.15,.1-.19-2.18-.8-4.59-3.4-4.76-.74-.05,.17,.56,.34,.77,.97,1.18,.14,1.59,.15,2.64,.01,1.17,.84,2.77,2.21,2.55-.07,1.16-.48,2.29-.6,3.45-.21,2.1,.06,4.73,.75,6.75,.09,.28,.77,1.53,.65,1.7-1-.71-2.13-1.12-3.15-1.8-.21-.14-1.54-1.14-1.54-1.25,1.43-1.06,1.84-2.47,.59-3.9-.7-.81-1.39-.89-1.4-2.2,0-.37,.27-.78-.04-1.05-.79,1.05-1.7,1.66-1.43,3.13,.13,.7,.67,1.65,.77,2.33,.02,.16,.09,.39-.14,.34-1.6-1.34-3.16-3.02-4.39-4.71-.26-.36-1.86-2.76-1.66-2.99,.65-.02,1.82-1.07,2.02-1.63,.34-.94-.08-2.41,.43-3.08,.21-.28,.62-.34,.55-.7-.92-.26-1.8,.16-2.5,.75-.83,.69-.77,1.6-1.05,2.55-.52-.51-1.53-5.1-1.8-5.1-.24,.2-.17,.63-.14,.94,.15,1.7,1.08,4.56,1.71,6.19,.69,1.77,1.71,3.15,2.87,4.63l-.05,.15c-.87-.81-2.49-.22-3.32-.68-.52-.29-.65-1.03-.94-1.46-.08-.12-.12-.2-.29-.16-.01,1.23,.02,2.22,.66,3.29,1.37,2.31,3.71,2.34,6.07,1.62,.11,.03,.19,.19,.28,.23,1.08,.45,1.53,1.24,2.44,1.96,.59,.46,1.24,.82,1.85,1.25-.97,.05-1.97,.19-2.84,.66-2.26,1.25-3.72,3.14-3.45,5.83,.04,.39,.21,1.51,.73,1.47,.65-.06,.08-1.46,.7-2.11,.88-.92,2.68-1.36,2.86-3.04,.06-.57-.26-.86-.19-1.39,.04-.12,.93-.58,1.08-.62,.35-.09,1.91-.21,2.23-.12,.47,.12,1.99,1.29,2.59,1.61,.76,.41,1.59,.73,2.36,1.11,.27,.04,.5,.25,.73,.39Z"/>
        <path class="cls-2" d="M54.88,52.56c.14-.06,.15-.03,.12-.23h-1.65s-.71-.28-.75-.35c.4-.19,.8-.75,.8-1.2,0-1.07-1.74-1.63-2.06-.66-.06,.2-.11,.72,.21,.51,.06-1.39,2.11-.58,1.39,.69-.29,.51-1.15,.62-1.69,.61-1.84-.03-3.85-.9-5.2-2.11-1.19-1.06-2.28-2.51-3.05-3.9,1.09,.3,1.68,1.49,2.67,1.98,1.12,.56,2.59,.69,3.79,.32,.11-.03,.62-.19,.54-.35-.46-.21-.93-.25-1.4-.5-1.67-.87-2.84-4-4.65-4.25-1.03-.14-1.67,.09-2.04,1.09-.29,.2-1.23-1.01-1.45-1.2-1.18-1-2.76-1.9-4.25-2.3l1.3-.75c.57-.83,.99-1.22,1.73-1.87,.06-.05,.15-.09,.15-.14,0-.05-.06-.08-.09-.1-.26-.15-.72,.03-.72,.03-.97,.37-2.26-.14-3.26,.65-.25,.2-.68,.63-.88,1.58h-4.54v-.38c-.36,.05-.75,.08-.99,.36-.23,.25-.33,.63-.36,.96-.03,.28-.04,.65,.14,.89,.18,.23,.49,.35,.76,.4,.14,.03,.31,.04,.48,.02,0-.23-.01-.46-.02-.68,.12-.49,3.78-.6,4.35-.57,1.08,.07,1.94,.39,2.95,.7-.73,.89-1.05,2.27-.3,3.25,.6,.77,1.37,.5,1.19,1.79-.05,.35-.29,.61-.29,.96,.8,.01,1.5-.96,1.67-1.68,.28-1.18,.04-2.32-.67-3.28-.02-.07,.1-.07,.15-.05,.11,.05,1.61,1.41,1.8,1.6,1.55,1.58,2.65,3.77,4.4,5.2l2.19,1.61c.27,.3-.08,.86-.04,1.33,.11,1.35,1.8,2.74,3.13,2.55,1.19-.17,.19-.49-.04-.74-.47-.49-.19-1.67-.8-2.25,.36-.26,4.29,.85,5.27,.43Z"/>
      </g>
      <path class="cls-1" d="M61.65,53.65s0,0,0,0c-2.6,3.47-6.97,5.22-11.16,5.91-3.97,.65-13.47,1.05-17.05-.52-.21-.09-.42-.2-.61-.32,0,0-.01-.01-.02-.02-.09-.04-.18-.1-.25-.16l-.86-.83c-1.22-1.27-1.55-3.48-1.63-5.19-.17-3.35,.12-6.84,.01-10.22,0,0,0,0,0,0v-.04s0-.06,0-.09c0,0,0,0,0-.01v-.07s0-.1,0-.15c0,0,0,0,0-.01v-1.56h0v-.08s0-.02,0-.03v-2.04c0-.19,.5-.61,.75-.55,5.98,.46,17.26-2.22,19.02,5.98,.14,.66,.03,2.58,1.25,2.21,.39-.12,.55-1.34,.57-1.73,.19-2.99-.34-6.52-.31-9.61,.03-2.47,.37-5.14,.31-7.6-.02-.6-.12-2.19-1.03-1.93-.72,.2-.67,1.67-.8,2.21-1.33,5.79-6.63,5.98-11.52,6.08-2.19,.05-5.07,.18-7.2,0-.75-.06-1.05-.27-1.1-.85,0,0,0-.02,0-.03-.04-.12-.05-.26-.05-.39,0-.05,0-.1,0-.14-.05-.19-.04-.43-.03-.6,0,0,0-.01,0-.02l-.06-1.01s0-.01,0-.02c.04-.35,0-.76,.04-1.12,0-.01,0-.02,0-.03,0-.05,0-.1,.01-.15,.12-3.54-.24-7.31,0-10.81,.25-3.74,1.92-4.95,5.54-5.16l14.65,.41c4.97,.21,8.56,1.02,10.04,6.26,.29,1.03,.32,1.99,.53,2.97,.27,1.32,1.36,1.33,1.65,0,.3-1.41,.44-3.39,.62-4.88,.24-1.93,.39-3.87,.6-5.8,.09-.86,.36-1.87,.4-2.7,.1-2.17-1.94-.83-3.07-.57-.8,.18-1.65,.2-2.46,.33,0,0-.01,0-.02,0h-11.35s-1.08,0-1.08,0h-11.56c-4.65,.17-9.33,.36-14,.3-1.48-.02-3-.07-4.5-.1-2.09-.04-4.54-.35-6.6-.21-.53,.04-1.9,.16-1.94,.83,0,.02,0,.04,0,.06,.3,1.02,1.72,.65,2.54,.72,2.32,.21,5.67,1.03,6.89,3.2,.92,1.64,.64,3.45,.85,5.24,0,0,0,.02,0,.03-.22,2.67,.29,5.79,0,8.4,0,.07-.01,.14-.03,.19v.15s0,.03-.02,.04v.81s0,.02,0,.02l.04,8.98s0,.01,0,.02c0,0,0,0,0,.01,0,0,0,0,0,.02v1.89s0,.02,0,.03l-.1,15.94s0,0,0,0v1.4s0,0,0,0c0,.02,0,.04,0,.06h0s0,0,0,0c-.16,3.16-2.11,4.73-5,5.53-1.42,.4-2.64,.3-4.05,.45-.41,.04-.89,.16-1.12,.54-.01,.02-.02,.04-.02,.07-.06,.75,.84,.85,1.43,.9,2.4,.18,4.91-.07,7.3-.11,10.37-.15,20.72,.14,31.09,.1,3.08-.01,10.73,.52,13.19-.61,2.36-1.09,3.07-4.97,3.84-7.26,0-.02,.01-.05,.02-.07l.26-.89,2.03-6.64c.33-1.22-.63-1.89-1.42-.82-.58,.78-1.13,2.25-1.71,3.19-.32,.51-.66,1.03-1.05,1.5-.01,.01-.03,.02-.04,.03,0,0,0,0,0,0-.14,.17-.29,.35-.45,.51"/>
      <polygon class="cls-2" points="29.31 40.53 29.42 41.66 29.43 40.09 29.31 40.53"/>
    </g>
  </g>
</svg>